<svg width="24" height="24" viewBox="0 0 24 24" fill="none" xmlns="http://www.w3.org/2000/svg">
<rect width="24" height="24" rx="12" fill="#256B07"/>
<path d="M7.94896 17.3762L7.63136 18.0371L6.9668 18.3547L7.63136 18.6814L7.94896 19.3423L8.26839 18.6814L8.93112 18.3638L8.26839 18.0463L7.94896 17.3762ZM8.07196 6.86794L8.43913 6.12444L9.18447 5.76645L8.43178 5.4103L8.06462 4.67597L7.71398 5.4103L6.9668 5.76645L7.71398 6.12444L8.07196 6.86794ZM16.4231 17.7635L15.3216 17.3762L15.709 18.4777L15.3216 19.5792L16.4231 19.1918L17.5246 19.5792L17.1372 18.4777L17.5246 17.3762L16.4231 17.7635ZM11.8795 11.0224C11.686 11.0231 11.4971 11.0812 11.3366 11.1892C11.1762 11.2973 11.0513 11.4504 10.9779 11.6294C10.9044 11.8084 10.8857 12.0051 10.924 12.1947C10.9623 12.3843 11.056 12.5583 11.1932 12.6947C11.3303 12.8311 11.5049 12.9238 11.6947 12.9611C11.8845 12.9983 12.0811 12.9785 12.2597 12.904C12.4382 12.8296 12.5907 12.7039 12.6979 12.5428C12.805 12.3817 12.862 12.1925 12.8616 11.9991C12.8614 11.8704 12.8358 11.7431 12.7863 11.6243C12.7367 11.5056 12.6643 11.3978 12.5731 11.307C12.4818 11.2163 12.3736 11.1445 12.2546 11.0957C12.1356 11.0468 12.0081 11.0219 11.8795 11.0224ZM16.9665 11.9991C18.5765 10.4753 19.3531 8.98097 18.8409 8.08876C18.5453 7.57841 17.8642 7.33608 16.9371 7.33608C16.1048 7.36036 15.2796 7.4981 14.4845 7.74547C13.9558 5.59939 13.0434 4.17847 12.0006 4.17847C10.9579 4.17847 10.0455 5.59939 9.51859 7.74547C8.72405 7.49826 7.89952 7.36053 7.06777 7.33608C6.13884 7.33608 5.45959 7.57841 5.16219 8.08876C4.63531 8.98097 5.42654 10.4753 7.03656 11.9991C5.42654 13.5246 4.63531 15.0098 5.16219 15.9094C5.45959 16.4197 6.13884 16.662 7.06777 16.662C7.89943 16.6382 8.72396 16.5011 9.51859 16.2545C10.0455 18.3987 10.9597 19.8215 12.0006 19.8215C13.0415 19.8215 13.9558 18.3987 14.4845 16.2545C15.2791 16.5011 16.1036 16.6382 16.9353 16.662C17.8532 16.662 18.5435 16.4179 18.839 15.9094C19.3623 15.019 18.5765 13.5246 16.9665 11.9991ZM7.06777 15.6854C6.35914 15.6854 6.07092 15.5128 6.01768 15.421C5.8341 15.1053 6.3518 13.9946 7.77823 12.6526C8.18578 12.9904 8.62821 13.3264 9.10736 13.6531C9.15509 14.2277 9.22669 14.773 9.31848 15.2925C8.59003 15.527 7.83257 15.6592 7.06777 15.6854ZM9.04127 12.4048C8.85769 12.2708 8.68696 12.1349 8.51806 11.9991C8.68329 11.8632 8.85953 11.7274 9.04127 11.5915V12.4048ZM9.10186 10.345C8.62271 10.6736 8.18395 11.0096 7.77089 11.3473C7.45285 11.0538 7.15363 10.7404 6.87501 10.4092C5.94792 9.2949 5.94057 8.69826 6.01217 8.57342C6.06541 8.48347 6.3518 8.30906 7.06226 8.30906C7.82723 8.33509 8.5848 8.46794 9.31298 8.70376C9.22486 9.22514 9.15509 9.77221 9.10736 10.345H9.10186ZM13.8309 9.67124C13.7116 9.59964 13.5978 9.52805 13.4766 9.46012C13.3555 9.3922 13.2398 9.33161 13.1205 9.26736C13.3279 9.18108 13.5335 9.09846 13.7373 9.0232C13.7759 9.23064 13.8144 9.44727 13.8364 9.67124H13.8309ZM11.9951 5.15696C12.3623 5.15696 13.0764 6.15748 13.5372 8.05205C13.0354 8.23318 12.5214 8.44736 11.9951 8.69458C11.4918 8.45751 10.9778 8.24371 10.4549 8.05388C10.9212 6.15748 11.6316 5.15696 12.0006 5.15696H11.9951ZM10.2603 9.0232C10.464 9.09846 10.6696 9.18108 10.8771 9.26736C10.7578 9.33161 10.6403 9.3922 10.5209 9.46012C10.4016 9.52805 10.2841 9.59964 10.1666 9.67124C10.1942 9.44727 10.2254 9.23064 10.2603 9.0232ZM10.1666 14.3287C10.2841 14.3985 10.3998 14.4701 10.5209 14.5398C10.6421 14.6096 10.7578 14.6665 10.8771 14.7326C10.669 14.8183 10.4634 14.899 10.2603 14.9749C10.2254 14.7675 10.1942 14.5527 10.1666 14.3287ZM12.0025 18.843C11.6353 18.843 10.923 17.8425 10.4622 15.9461C10.9615 15.7625 11.4774 15.5514 12.0025 15.3035C12.5293 15.5514 13.0434 15.7643 13.5445 15.9461C13.0801 17.8425 12.3715 18.843 12.0006 18.843H12.0025ZM13.7446 14.9749C13.5415 14.899 13.3359 14.8183 13.1278 14.7326C13.2471 14.6665 13.3646 14.6078 13.484 14.5398C13.6033 14.4719 13.7208 14.3985 13.8383 14.3287C13.8144 14.5527 13.7759 14.7675 13.7428 14.9749H13.7446ZM11.9088 13.9542C11.5232 13.9495 11.1476 13.8308 10.8292 13.6132C10.5108 13.3955 10.2639 13.0885 10.1196 12.7309C9.97528 12.3732 9.93995 11.9809 10.0181 11.6032C10.0962 11.2255 10.2842 10.8794 10.5586 10.6083C10.833 10.3373 11.1814 10.1534 11.56 10.0799C11.9385 10.0064 12.3304 10.0465 12.6863 10.1951C13.0422 10.3438 13.3461 10.5944 13.5599 10.9154C13.7737 11.2363 13.8878 11.6134 13.8878 11.9991C13.8869 12.2572 13.835 12.5127 13.7351 12.7508C13.6353 12.9889 13.4894 13.2049 13.3059 13.3866C13.1224 13.5682 12.9049 13.7118 12.6658 13.8092C12.4267 13.9066 12.1707 13.9559 11.9125 13.9542H11.9088ZM16.9353 8.31273C17.6439 8.31273 17.9322 8.48714 17.9836 8.57709C18.1671 8.89469 17.6494 10.0035 16.223 11.3455C15.8136 11.0077 15.3712 10.6718 14.8939 10.345C14.8461 9.77221 14.7745 9.22514 14.6827 8.7056C15.4118 8.47086 16.1699 8.33864 16.9353 8.31273ZM14.9545 11.5933C15.138 11.7274 15.3106 11.8632 15.4795 12.0009C15.3124 12.1349 15.138 12.2708 14.9545 12.4084V11.9991C14.9545 11.8595 14.9581 11.7292 14.9545 11.5933ZM17.9872 15.421C17.934 15.5128 17.6458 15.6854 16.9371 15.6854C16.1717 15.6595 15.4136 15.5273 14.6846 15.2925C14.7764 14.773 14.848 14.2277 14.8957 13.6531C15.3749 13.3264 15.8136 12.9904 16.2267 12.6508C16.543 12.9455 16.841 13.2594 17.1189 13.5907C18.0496 14.7051 18.057 15.3017 17.9872 15.421Z" fill="white"/>
</svg>
