<svg width="14" height="14" viewBox="0 0 14 14" fill="none" xmlns="http://www.w3.org/2000/svg">
<path fill-rule="evenodd" clip-rule="evenodd" d="M2.625 12.25V1.75H11.375V12.25H2.625ZM11.8125 0.875H2.1875C2.05975 0.875 1.9549 0.915979 1.87294 0.997937C1.79098 1.0799 1.75 1.18475 1.75 1.3125V12.6875C1.75 12.8153 1.79098 12.9201 1.87294 13.0021C1.9549 13.084 2.05975 13.125 2.1875 13.125H11.8125C11.9403 13.125 12.0451 13.084 12.1271 13.0021C12.209 12.9201 12.25 12.8153 12.25 12.6875V1.3125C12.25 1.18475 12.209 1.0799 12.1271 0.997937C12.0451 0.915979 11.9403 0.875 11.8125 0.875ZM3.675 8.3125C3.57835 8.3125 3.5 8.39085 3.5 8.4875V9.0125C3.5 9.10915 3.57835 9.1875 3.675 9.1875H5.95C6.04665 9.1875 6.125 9.10915 6.125 9.0125V8.4875C6.125 8.39085 6.04665 8.3125 5.95 8.3125H3.675ZM3.5 10.2375C3.5 10.1409 3.57835 10.0625 3.675 10.0625H10.325C10.4216 10.0625 10.5 10.1409 10.5 10.2375V10.7625C10.5 10.8591 10.4216 10.9375 10.325 10.9375H3.675C3.57835 10.9375 3.5 10.8591 3.5 10.7625V10.2375ZM4.66908 3.49275C4.66908 3.65116 4.70864 3.7973 4.78774 3.93116C4.86685 4.06502 4.9749 4.1716 5.11187 4.2509C5.24885 4.3302 5.39343 4.36976 5.5456 4.36956C5.69778 4.36937 5.84391 4.32981 5.98401 4.2509C6.1241 4.17199 6.23215 4.06541 6.30814 3.93116C6.38413 3.79691 6.42222 3.65077 6.42241 3.49275C6.41637 3.24315 6.33113 3.03613 6.16668 2.87168C6.00223 2.70723 5.7952 2.625 5.5456 2.625C5.296 2.625 5.08898 2.70723 4.92453 2.87168C4.76008 3.03613 4.67512 3.24315 4.66908 3.49275ZM6.0939 6.08665L5.46377 5.45652C5.40278 5.39553 5.33273 5.36504 5.25362 5.36504C5.17452 5.36504 5.10447 5.39553 5.04348 5.45652L3.79874 6.70126C3.6885 6.8115 3.76658 7 3.92249 7H10.2411C10.3895 7 10.4705 6.82684 10.3754 6.71288L8.40459 4.35115C8.34361 4.27808 8.26752 4.24155 8.17633 4.24155C8.08514 4.24155 8.00906 4.27808 7.94807 4.35115L6.52325 6.05918C6.4685 6.12621 6.39845 6.16118 6.31311 6.16411C6.22776 6.16703 6.15469 6.14141 6.0939 6.08665Z" fill="currentColor"/>
</svg>
