<svg width="14" height="14" viewBox="0 0 14 14" fill="none" xmlns="http://www.w3.org/2000/svg">
<g clip-path="url(#clip0_1837_19741)">
<path d="M2.625 1.75V12.25H11.375V1.75H2.625ZM2.1875 0.875H11.8125C11.9403 0.875 12.0451 0.915979 12.1271 0.997937C12.209 1.0799 12.25 1.18475 12.25 1.3125V12.6875C12.25 12.8153 12.209 12.9201 12.1271 13.0021C12.0451 13.084 11.9403 13.125 11.8125 13.125H2.1875C2.05975 13.125 1.9549 13.084 1.87294 13.0021C1.79098 12.9201 1.75 12.8153 1.75 12.6875V1.3125C1.75 1.18475 1.79098 1.0799 1.87294 0.997937C1.9549 0.915979 2.05975 0.875 2.1875 0.875ZM4.375 7H9.625V7.875H4.375V7ZM4.375 4.375H7V5.25H4.375V4.375ZM4.375 9.625H9.625V10.5H4.375V9.625Z" fill="currentColor"/>
</g>
<defs>
<clipPath id="clip0_1837_19741">
<rect width="14" height="14" fill="white"/>
</clipPath>
</defs>
</svg>
