<svg width="24" height="24" viewBox="0 0 24 24" fill="none" xmlns="http://www.w3.org/2000/svg">
<rect width="24" height="24" rx="12" fill=""/>
<path d="M6.92629 18.7333L6.52852 19.5611L5.69619 19.9588L6.52852 20.3681L6.92629 21.1958L7.32635 20.3681L8.15638 19.9703L7.32635 19.5726L6.92629 18.7333ZM7.08033 5.57249L7.54018 4.6413L8.47367 4.19295L7.53099 3.74689L7.07114 2.8272L6.63198 3.74689L5.69619 4.19295L6.63198 4.6413L7.08033 5.57249ZM17.5396 19.2185L16.16 18.7333L16.6452 20.1129L16.16 21.4924L17.5396 21.0073L18.9191 21.4924L18.434 20.1129L18.9191 18.7333L17.5396 19.2185ZM11.849 10.7757C11.6067 10.7766 11.3701 10.8493 11.1691 10.9846C10.9682 11.1199 10.8118 11.3118 10.7198 11.5359C10.6278 11.76 10.6044 12.0064 10.6523 12.2439C10.7003 12.4814 10.8176 12.6993 10.9894 12.8702C11.1612 13.041 11.3798 13.1571 11.6176 13.2037C11.8553 13.2504 12.1016 13.2255 12.3252 13.1323C12.5488 13.039 12.7398 12.8816 12.874 12.6799C13.0081 12.4781 13.0795 12.2412 13.0791 11.9989C13.0788 11.8377 13.0467 11.6783 12.9847 11.5295C12.9227 11.3808 12.8319 11.2458 12.7177 11.1322C12.6034 11.0186 12.4679 10.9286 12.3188 10.8674C12.1698 10.8062 12.0101 10.7751 11.849 10.7757ZM18.2202 11.9989C20.2366 10.0905 21.2092 8.21892 20.5677 7.10149C20.1975 6.4623 19.3445 6.1588 18.1834 6.1588C17.1409 6.18921 16.1074 6.36171 15.1116 6.67153C14.4494 3.98371 13.3067 2.2041 12.0007 2.2041C10.6947 2.2041 9.55202 3.98371 8.89214 6.67153C7.89703 6.36192 6.86436 6.18942 5.82265 6.1588C4.65923 6.1588 3.80851 6.4623 3.43604 7.10149C2.77615 8.21892 3.76713 10.0905 5.78356 11.9989C3.76713 13.9095 2.77615 15.7696 3.43604 16.8963C3.80851 17.5354 4.65923 17.8389 5.82265 17.8389C6.86425 17.8091 7.89692 17.6373 8.89214 17.3285C9.55202 20.014 10.697 21.7959 12.0007 21.7959C13.3044 21.7959 14.4494 20.014 15.1116 17.3285C16.1068 17.6373 17.1395 17.8091 18.1811 17.8389C19.3307 17.8389 20.1952 17.5331 20.5654 16.8963C21.2207 15.7811 20.2366 13.9095 18.2202 11.9989ZM5.82265 16.6157C4.93514 16.6157 4.57416 16.3996 4.50748 16.2847C4.27756 15.8892 4.92595 14.4981 6.71246 12.8174C7.22289 13.2405 7.777 13.6612 8.37711 14.0705C8.43689 14.7901 8.52656 15.473 8.64152 16.1237C7.72918 16.4173 6.78051 16.5829 5.82265 16.6157ZM8.29433 12.507C8.06441 12.3392 7.85058 12.169 7.63905 11.9989C7.84598 11.8287 8.06671 11.6586 8.29433 11.4884V12.507ZM8.37021 9.92725C7.77011 10.3388 7.22059 10.7596 6.70326 11.1826C6.30495 10.815 5.93019 10.4225 5.58123 10.0077C4.42011 8.61209 4.41092 7.86483 4.50059 7.70849C4.56726 7.59582 4.92595 7.3774 5.81575 7.3774C6.77382 7.40999 7.72263 7.57638 8.63462 7.87173C8.52426 8.52472 8.43689 9.20989 8.37711 9.92725H8.37021ZM14.2931 9.08343C14.1436 8.99376 14.0011 8.90409 13.8493 8.81902C13.6976 8.73395 13.5527 8.65807 13.4032 8.5776C13.6631 8.46953 13.9206 8.36607 14.1758 8.2718C14.2241 8.53161 14.2724 8.80292 14.3 9.08343H14.2931ZM11.9938 3.4296C12.4537 3.4296 13.3481 4.68268 13.9252 7.0555C13.2967 7.28236 12.6529 7.5506 11.9938 7.86024C11.3634 7.56331 10.7197 7.29555 10.0647 7.0578C10.6488 4.68268 11.5386 3.4296 12.0007 3.4296H11.9938ZM9.82103 8.2718C10.0762 8.36607 10.3338 8.46953 10.5936 8.5776C10.4441 8.65807 10.297 8.73395 10.1475 8.81902C9.99807 8.90409 9.85092 8.99376 9.70377 9.08343C9.73826 8.80292 9.77734 8.53161 9.82103 8.2718ZM9.70377 14.9166C9.85092 15.004 9.99577 15.0936 10.1475 15.181C10.2993 15.2684 10.4441 15.3397 10.5936 15.4224C10.333 15.5297 10.0755 15.6309 9.82103 15.7259C9.77734 15.4661 9.73826 15.1971 9.70377 14.9166ZM12.003 20.5704C11.5432 20.5704 10.6511 19.3174 10.0739 16.9422C10.6993 16.7123 11.3454 16.4479 12.003 16.1375C12.6629 16.4479 13.3067 16.7146 13.9344 16.9422C13.3527 19.3174 12.4652 20.5704 12.0007 20.5704H12.003ZM14.185 15.7259C13.9305 15.6309 13.673 15.5297 13.4124 15.4224C13.5619 15.3397 13.709 15.2661 13.8585 15.181C14.0079 15.0959 14.1551 15.004 14.3023 14.9166C14.2724 15.1971 14.2241 15.4661 14.1827 15.7259H14.185ZM11.8857 14.4476C11.4028 14.4417 10.9323 14.2931 10.5336 14.0204C10.1348 13.7478 9.82564 13.3633 9.64488 12.9154C9.46412 12.4675 9.41987 11.9761 9.5177 11.5031C9.61553 11.0301 9.85107 10.5966 10.1947 10.2571C10.5383 9.91762 10.9746 9.68736 11.4488 9.59527C11.923 9.50319 12.4138 9.55339 12.8595 9.73957C13.3052 9.92576 13.6859 10.2396 13.9536 10.6416C14.2214 11.0436 14.3643 11.5158 14.3643 11.9989C14.3631 12.3222 14.2981 12.6422 14.1731 12.9404C14.048 13.2386 13.8653 13.5091 13.6355 13.7366C13.4057 13.9641 13.1332 14.144 12.8338 14.266C12.5343 14.388 12.2137 14.4497 11.8903 14.4476H11.8857ZM18.1811 7.38199C19.0686 7.38199 19.4296 7.60042 19.4939 7.71308C19.7239 8.11085 19.0755 9.49959 17.289 11.1803C16.7762 10.7573 16.2221 10.3365 15.6243 9.92725C15.5645 9.20989 15.4749 8.52472 15.3599 7.87403C16.2729 7.58004 17.2224 7.41444 18.1811 7.38199ZM15.7002 11.4907C15.9301 11.6586 16.1462 11.8287 16.3578 12.0012C16.1485 12.169 15.9301 12.3392 15.7002 12.5116V11.9989C15.7002 11.8241 15.7048 11.6609 15.7002 11.4907ZM19.4985 16.2847C19.4319 16.3996 19.0709 16.6157 18.1834 16.6157C17.2247 16.5833 16.2752 16.4177 15.3622 16.1237C15.4772 15.473 15.5668 14.7901 15.6266 14.0705C16.2267 13.6612 16.7762 13.2405 17.2936 12.8151C17.6898 13.1843 18.063 13.5774 18.411 13.9923C19.5767 15.388 19.5859 16.1352 19.4985 16.2847Z" fill="#256B07"/>
</svg>
