<svg width="180" height="180" viewBox="0 0 180 180" fill="none" xmlns="http://www.w3.org/2000/svg">
<ellipse opacity="0.1" cx="90" cy="174.6" rx="90" ry="5.4" fill="#C0C4CC"/>
<path fill-rule="evenodd" clip-rule="evenodd" d="M139.779 29.87C139.819 27.2512 141.974 25.1607 144.593 25.2008C147.212 25.2408 149.302 27.3962 149.262 30.0149L149.113 39.7695C149.073 42.3883 146.918 44.4788 144.299 44.4388C141.68 44.3987 139.59 42.2434 139.63 39.6246L139.779 29.87ZM144.538 28.8004C143.907 28.7907 143.388 29.2942 143.378 29.925L143.229 39.6796C143.22 40.3104 143.723 40.8295 144.354 40.8392C144.985 40.8488 145.504 40.3453 145.514 39.7145L145.663 29.9599C145.672 29.3292 145.169 28.81 144.538 28.8004ZM149.798 49.5734C149.838 46.9546 151.994 44.8641 154.613 44.9041L164.367 45.0532C166.986 45.0933 169.076 47.2486 169.036 49.8674C168.996 52.4862 166.841 54.5767 164.222 54.5367L154.468 54.3876C151.849 54.3476 149.758 52.1922 149.798 49.5734ZM154.558 48.5037C153.927 48.4941 153.408 48.9976 153.398 49.6284C153.388 50.2592 153.892 50.7784 154.523 50.788L164.277 50.9371C164.908 50.9467 165.427 50.4432 165.437 49.8124C165.446 49.1816 164.943 48.6625 164.312 48.6528L154.558 48.5037ZM39.9528 57.1744C41.3818 51.6013 46.4045 47.7039 52.158 47.7039H133.243C138.996 47.7039 144.019 51.6013 145.448 57.1744L154.195 91.2882C154.618 92.936 154.702 94.6523 154.443 96.3336L149.362 129.364C148.416 135.51 143.127 140.048 136.908 140.048H61.13C57.3685 149.233 48.3398 155.704 37.7998 155.704C23.8822 155.704 12.5998 144.422 12.5998 130.504C12.5998 118.463 21.0457 108.394 32.3367 105.898L30.9324 96.2798C30.6913 94.6287 30.7806 92.9462 31.195 91.3299L39.9528 57.1744ZM35.8985 105.375C36.5261 105.328 37.1602 105.304 37.7998 105.304C51.7174 105.304 62.9998 116.587 62.9998 130.504C62.9998 132.552 62.7556 134.542 62.2949 136.448H136.908C141.351 136.448 145.128 133.207 145.804 128.816L150.885 95.7862L150.896 95.7165L150.902 95.6748H124.06L116.452 106.327C114.086 109.638 110.268 111.603 106.199 111.603H80.3379C76.2687 111.603 72.45 109.638 70.0848 106.327L62.4763 95.6748H34.4826L34.4946 95.7597L35.8985 105.375ZM141.961 58.0686L150.68 92.0748H138.871V90.9382V90.8355V81.3599V79.4589V68.0806C138.871 63.11 134.841 59.0805 129.871 59.0805H55.5273C50.5568 59.0805 46.5273 63.11 46.5273 68.0806V79.4589V81.3599V90.8355V90.9382V92.0748H34.7205L43.44 58.0686C44.4607 54.0878 48.0484 51.304 52.158 51.304H133.243C137.353 51.304 140.94 54.0878 141.961 58.0686ZM135.271 72.2583C133.766 71.1284 131.897 70.4589 129.871 70.4589H55.5273C53.5012 70.4589 51.6315 71.1284 50.1273 72.2582V68.0806C50.1273 65.0982 52.545 62.6806 55.5273 62.6806H129.871C132.853 62.6806 135.271 65.0982 135.271 68.0806V72.2583ZM50.1273 92.0748H63.4027C63.984 92.0748 64.5295 92.3555 64.8674 92.8286L73.0143 104.234C74.7037 106.599 77.4313 108.003 80.3379 108.003H106.199C109.105 108.003 111.833 106.599 113.522 104.234L121.669 92.8286C122.007 92.3555 122.552 92.0748 123.134 92.0748H135.271V91.1087L134.909 89.2143C134.863 88.974 134.807 88.7375 134.743 88.505C133.873 86.6894 132.018 85.4355 129.871 85.4355H55.5273C53.0428 85.4355 50.9502 87.1135 50.3208 89.3979C50.2908 89.5754 50.2659 89.7547 50.2463 89.9358L50.1273 91.0353V92.0748ZM16.1998 130.504C16.1998 118.575 25.8705 108.904 37.7998 108.904C49.7291 108.904 59.3998 118.575 59.3998 130.504C59.3998 142.434 49.7291 152.104 37.7998 152.104C25.8705 152.104 16.1998 142.434 16.1998 130.504ZM33.2998 118.804C33.2998 116.319 35.3145 114.304 37.7998 114.304C40.2851 114.304 42.2998 116.319 42.2998 118.804V129.604C42.2998 132.089 40.2851 134.104 37.7998 134.104C35.3145 134.104 33.2998 132.089 33.2998 129.604V118.804ZM37.7998 117.904C37.3027 117.904 36.8998 118.307 36.8998 118.804V129.604C36.8998 130.101 37.3027 130.504 37.7998 130.504C38.2969 130.504 38.6998 130.101 38.6998 129.604V118.804C38.6998 118.307 38.2969 117.904 37.7998 117.904ZM37.7998 146.704C35.3145 146.704 33.2998 144.69 33.2998 142.204C33.2998 139.719 35.3145 137.704 37.7998 137.704C40.2851 137.704 42.2998 139.719 42.2998 142.204C42.2998 144.69 40.2851 146.704 37.7998 146.704ZM36.8998 142.204C36.8998 142.701 37.3027 143.104 37.7998 143.104C38.2969 143.104 38.6998 142.701 38.6998 142.204C38.6998 141.707 38.2969 141.304 37.7998 141.304C37.3027 141.304 36.8998 141.707 36.8998 142.204Z" fill="#C0C4CC"/>
</svg>
