<svg width="18" height="18" viewBox="0 0 18 18" fill="none" xmlns="http://www.w3.org/2000/svg">
<path d="M9 1.125C9.3165 1.13662 9.58013 1.248 9.79088 1.45913C10.0016 1.67025 10.113 1.93388 10.125 2.25V3.375H7.875V2.25C7.88662 1.9335 7.998 1.66988 8.20912 1.45913C8.42025 1.24838 8.68388 1.137 9 1.125V1.125ZM4.5 13.5L13.5 13.5L13.5 7.875C13.4647 6.59775 13.0253 5.53725 12.1815 4.6935C11.3378 3.84975 10.2772 3.41025 9 3.375C7.72275 3.41025 6.66225 3.84975 5.8185 4.6935C4.97475 5.53725 4.53525 6.59775 4.5 7.875L4.5 13.5V13.5ZM9 2.25C10.5937 2.28525 11.9209 2.83312 12.9814 3.89362C14.0419 4.95412 14.5897 6.28125 14.625 7.875L14.625 14.625L3.375 14.625L3.375 7.875C3.41025 6.28125 3.95812 4.95412 5.01862 3.89362C6.07912 2.83312 7.40625 2.28525 9 2.25V2.25ZM1.6875 13.5L16.3125 13.5C16.6875 13.5 16.875 13.6875 16.875 14.0625C16.875 14.4375 16.6875 14.625 16.3125 14.625L1.6875 14.625C1.3125 14.625 1.125 14.4375 1.125 14.0625C1.125 13.6875 1.3125 13.5 1.6875 13.5ZM7.875 15.75L10.125 15.75C10.1134 16.0665 10.002 16.3301 9.79088 16.5409C9.57975 16.7516 9.31612 16.8572 9 16.8576C8.68388 16.8579 8.42025 16.7524 8.20912 16.5409C7.998 16.3294 7.88662 16.0658 7.875 15.75V15.75Z" fill="currentColor"/>
</svg>
