<svg width="16" height="16" viewBox="0 0 16 16" fill="none" xmlns="http://www.w3.org/2000/svg">
<path d="M1.87383 14.9993C1.75958 14.9981 1.6467 14.9744 1.54167 14.9295C1.43665 14.8845 1.34155 14.8192 1.26188 14.7373C1.17911 14.6583 1.11323 14.5634 1.06822 14.4582C1.02321 14.353 1 14.2398 1 14.1254C1 14.011 1.02321 13.8977 1.06822 13.7926C1.11323 13.6874 1.17911 13.5924 1.26188 13.5134L8.22828 6.55002C8.25446 6.52217 8.28606 6.49998 8.32114 6.48481C8.35622 6.46964 8.39404 6.46182 8.43226 6.46182C8.47048 6.46182 8.5083 6.46964 8.54338 6.48481C8.57846 6.49998 8.61006 6.52217 8.63624 6.55002L9.45317 7.36595C9.48063 7.39235 9.50248 7.42403 9.5174 7.45908C9.53232 7.49413 9.54002 7.53183 9.54002 7.56993C9.54002 7.60803 9.53232 7.64573 9.5174 7.68078C9.50248 7.71583 9.48063 7.74751 9.45317 7.77391L2.48677 14.7373C2.40698 14.8193 2.31172 14.8847 2.20652 14.9296C2.10131 14.9746 1.98823 14.9983 1.87383 14.9993ZM12.6489 11.8166C12.6142 11.8168 12.5803 11.8063 12.5517 11.7867C12.5231 11.767 12.5012 11.739 12.4889 11.7066C12.3344 11.221 12.0654 10.7798 11.7047 10.4199C11.3439 10.06 10.902 9.79213 10.4161 9.63875C10.384 9.62609 10.3564 9.60406 10.337 9.57553C10.3176 9.54699 10.3072 9.51328 10.3072 9.47877C10.3072 9.44425 10.3176 9.41054 10.337 9.38201C10.3564 9.35348 10.384 9.33144 10.4161 9.31878C10.9016 9.1649 11.343 8.89666 11.7031 8.53664C12.0633 8.17662 12.3318 7.73535 12.4859 7.24996C12.4989 7.21825 12.5211 7.19113 12.5496 7.17204C12.5781 7.15295 12.6116 7.14276 12.6459 7.14276C12.6802 7.14276 12.7137 7.15295 12.7422 7.17204C12.7707 7.19113 12.7928 7.21825 12.8059 7.24996C12.9601 7.73516 13.2286 8.17623 13.5888 8.53607C13.949 8.89591 14.3903 9.16399 14.8757 9.31778C14.906 9.32446 14.9332 9.34109 14.9529 9.36501C14.9727 9.38892 14.9839 9.41876 14.9847 9.44977C14.9895 9.4887 14.9815 9.52813 14.9621 9.56219C14.9426 9.59624 14.9127 9.6231 14.8767 9.63875C14.3915 9.79333 13.9505 10.0621 13.5907 10.4224C13.2309 10.7827 12.9628 11.2242 12.8089 11.7096C12.7961 11.7415 12.774 11.7688 12.7455 11.7879C12.7169 11.807 12.6832 11.817 12.6489 11.8166ZM10.4761 6.63701C10.438 6.63671 10.4004 6.62887 10.3654 6.61394C10.3304 6.59901 10.2987 6.57728 10.2721 6.55002L9.45617 5.73509C9.42832 5.70891 9.40613 5.67731 9.39096 5.64222C9.3758 5.60714 9.36797 5.56933 9.36797 5.53111C9.36797 5.49289 9.3758 5.45507 9.39096 5.41999C9.40613 5.38491 9.42832 5.3533 9.45617 5.32713L10.3881 4.39521C10.4277 4.35392 10.4753 4.32108 10.528 4.29864C10.5807 4.2762 10.6373 4.26464 10.6946 4.26464C10.7518 4.26464 10.8085 4.2762 10.8611 4.29864C10.9138 4.32108 10.9614 4.35392 11.001 4.39521L11.613 5.00715C11.6541 5.04679 11.6868 5.09432 11.7092 5.14689C11.7315 5.19947 11.743 5.256 11.743 5.31313C11.743 5.37025 11.7315 5.42679 11.7092 5.47936C11.6868 5.53193 11.6541 5.57946 11.613 5.6191L10.6801 6.55002C10.6535 6.57737 10.6218 6.59923 10.5868 6.61432C10.5518 6.62942 10.5142 6.63747 10.4761 6.63801V6.63701ZM5.95647 6.27404C5.91705 6.27411 5.87868 6.26137 5.84712 6.23775C5.81557 6.21412 5.79253 6.18089 5.78149 6.14305C5.61398 5.593 5.31364 5.09264 4.90697 4.68615C4.5003 4.27966 3.99981 3.97953 3.44969 3.81226C3.41577 3.79769 3.38709 3.77315 3.36744 3.74189C3.3478 3.71064 3.33812 3.67415 3.3397 3.63727C3.33812 3.60039 3.3478 3.5639 3.36744 3.53265C3.38709 3.5014 3.41577 3.47686 3.44969 3.46229C3.99989 3.29525 4.5005 2.99534 4.90734 2.58902C5.31419 2.1827 5.61474 1.68247 5.78249 1.13249C5.79335 1.09446 5.81631 1.06101 5.84788 1.03719C5.87945 1.01337 5.91792 1.00049 5.95747 1.00049C5.99702 1.00049 6.03549 1.01337 6.06707 1.03719C6.09864 1.06101 6.12159 1.09446 6.13246 1.13249C6.3002 1.68247 6.60076 2.1827 7.0076 2.58902C7.41444 2.99534 7.91506 3.29525 8.46526 3.46229C8.50288 3.47343 8.53589 3.49645 8.55937 3.52789C8.58285 3.55934 8.59554 3.59753 8.59554 3.63677C8.59554 3.67601 8.58285 3.7142 8.55937 3.74565C8.53589 3.77709 8.50288 3.80011 8.46526 3.81126C7.91495 3.97839 7.41426 4.27845 7.00741 4.68495C6.60055 5.09146 6.30006 5.59189 6.13246 6.14205C6.12159 6.18008 6.09864 6.21353 6.06706 6.23735C6.03549 6.26116 5.99702 6.27404 5.95747 6.27404H5.95647ZM13.2458 4.51419C13.2194 4.51498 13.1934 4.50667 13.1723 4.49066C13.1512 4.47466 13.1362 4.45191 13.1299 4.4262C13.0228 4.0598 12.8251 3.72628 12.5551 3.45644C12.2851 3.18661 11.9515 2.98916 11.585 2.88234C11.5596 2.87521 11.5372 2.85996 11.5213 2.83893C11.5053 2.8179 11.4967 2.79224 11.4967 2.76585C11.4967 2.73946 11.5053 2.71379 11.5213 2.69276C11.5372 2.67173 11.5596 2.65649 11.585 2.64936C11.9517 2.54209 12.2855 2.34413 12.5555 2.07377C12.8255 1.80341 13.0231 1.46936 13.1299 1.10249C13.137 1.07708 13.1522 1.0547 13.1733 1.03876C13.1943 1.02282 13.22 1.01419 13.2463 1.01419C13.2727 1.01419 13.2984 1.02282 13.3194 1.03876C13.3405 1.0547 13.3557 1.07708 13.3628 1.10249C13.4704 1.46927 13.6688 1.80301 13.9395 2.07286C14.2102 2.3427 14.5446 2.53995 14.9117 2.64636C14.9371 2.65349 14.9595 2.66873 14.9754 2.68976C14.9914 2.71079 15 2.73646 15 2.76285C15 2.78924 14.9914 2.8149 14.9754 2.83593C14.9595 2.85696 14.9371 2.87221 14.9117 2.87934C14.1648 3.09632 13.5808 3.67927 13.3628 4.4262C13.3559 4.45135 13.3406 4.47342 13.3196 4.48884C13.2986 4.50426 13.2729 4.51214 13.2468 4.5112V4.5132L13.2458 4.51419Z" fill="currentColor"/>
</svg>
