<svg width="18" height="18" viewBox="0 0 18 18" fill="none" xmlns="http://www.w3.org/2000/svg">
<path d="M13.9922 13.2013L16.1893 15.3984C16.2947 15.5158 16.3473 15.6476 16.3473 15.7938C16.3473 15.9401 16.2917 16.0691 16.1803 16.1808C16.0689 16.2926 15.9399 16.3483 15.7933 16.3479C15.6467 16.3475 15.5148 16.2948 15.3978 16.1898L13.2007 13.9927C11.6422 15.27 9.91366 15.8529 8.01503 15.7415C6.11641 15.6302 4.46997 14.8537 3.07572 13.4122C1.73959 11.9006 1.08916 10.1955 1.12441 8.29684C1.15966 6.39822 1.87459 4.72234 3.26922 3.26922C4.72234 1.87459 6.39822 1.15966 8.29684 1.12441C10.1955 1.08916 11.9006 1.73959 13.4122 3.07572C14.8537 4.47034 15.6302 6.11678 15.7415 8.01503C15.8529 9.91328 15.27 11.6418 13.9927 13.2007L13.9922 13.2013ZM8.43747 14.625C10.1955 14.5781 11.6544 13.9745 12.8143 12.8143C13.9742 11.654 14.5777 10.1951 14.625 8.43747C14.5781 6.67947 13.9745 5.22053 12.8143 4.06066C11.654 2.90078 10.1951 2.29722 8.43747 2.24997C6.67947 2.29684 5.22053 2.90041 4.06066 4.06066C2.90078 5.22091 2.29722 6.67984 2.24997 8.43747C2.29684 10.1955 2.90041 11.6544 4.06066 12.8143C5.22091 13.9742 6.67984 14.5777 8.43747 14.625Z" fill="currentColor"/>
</svg>
