<svg width="18" height="18" viewBox="0 0 18 18" fill="none" xmlns="http://www.w3.org/2000/svg">
<path d="M5.0625 5.625C5.08612 6.73837 5.46994 7.66706 6.21394 8.41106C6.95794 9.15506 7.88663 9.53888 9 9.5625C10.1134 9.53888 11.0421 9.15506 11.7861 8.41106C12.5301 7.66706 12.9139 6.73837 12.9375 5.625C12.9139 4.51163 12.5301 3.58294 11.7861 2.83894C11.0421 2.09494 10.1134 1.71112 9 1.6875C7.88663 1.71112 6.95794 2.09494 6.21394 2.83894C5.46994 3.58294 5.08612 4.51163 5.0625 5.625ZM14.625 16.3125H2.8125C2.64825 16.3125 2.51344 16.2598 2.40806 16.1544C2.30269 16.0491 2.25 15.9142 2.25 15.75L2.25 14.0625C2.27362 13.2656 2.54906 12.6036 3.07631 12.0763C3.60356 11.5491 4.26563 11.2736 5.0625 11.25L12.9375 11.25C13.7344 11.2736 14.3964 11.5491 14.9237 12.0763C15.4509 12.6036 15.7264 13.2656 15.75 14.0625V15.75C15.75 15.9142 15.6973 16.0491 15.5919 16.1544C15.4866 16.2598 15.3517 16.3125 15.1875 16.3125H14.625Z" fill="currentColor"/>
</svg>
