<svg width="40" height="40" viewBox="0 0 40 40" fill="none" xmlns="http://www.w3.org/2000/svg">
<g clip-path="url(#clip0_291_11350)">
<path d="M12.4727 15.0545C12.4727 15.4016 12.6106 15.7346 12.8561 15.9801C13.1016 16.2256 13.4346 16.3635 13.7817 16.3635C14.1289 16.3635 14.4619 16.2256 14.7074 15.9801C14.9529 15.7346 15.0908 15.4016 15.0908 15.0545C15.0908 14.7073 14.9529 14.3743 14.7074 14.1288C14.4619 13.8833 14.1289 13.7454 13.7817 13.7454C13.4346 13.7454 13.1016 13.8833 12.8561 14.1288C12.6106 14.3743 12.4727 14.7073 12.4727 15.0545Z" fill="currentColor"/>
<path d="M18.3274 15.0181C18.3274 15.3653 18.4653 15.6982 18.7108 15.9437C18.9563 16.1892 19.2893 16.3272 19.6365 16.3272C19.9837 16.3272 20.3166 16.1892 20.5622 15.9437C20.8077 15.6982 20.9456 15.3653 20.9456 15.0181C20.9456 14.6709 20.8077 14.3379 20.5622 14.0924C20.3166 13.8469 19.9837 13.709 19.6365 13.709C19.2893 13.709 18.9563 13.8469 18.7108 14.0924C18.4653 14.3379 18.3274 14.6709 18.3274 15.0181Z" fill="currentColor"/>
<path d="M21.6001 20.8727C21.6001 21.1138 21.6959 21.345 21.8664 21.5155C22.0369 21.686 22.2681 21.7818 22.5092 21.7818C22.7503 21.7818 22.9815 21.686 23.152 21.5155C23.3225 21.345 23.4183 21.1138 23.4183 20.8727C23.4183 20.6316 23.3225 20.4004 23.152 20.2299C22.9815 20.0594 22.7503 19.9636 22.5092 19.9636C22.2681 19.9636 22.0369 20.0594 21.8664 20.2299C21.6959 20.4004 21.6001 20.6316 21.6001 20.8727Z" fill="currentColor"/>
<path d="M26.2183 20.9455C26.2183 21.1866 26.314 21.4178 26.4845 21.5883C26.655 21.7588 26.8862 21.8546 27.1274 21.8546C27.3685 21.8546 27.5997 21.7588 27.7702 21.5883C27.9407 21.4178 28.0364 21.1866 28.0364 20.9455C28.0364 20.7044 27.9407 20.4731 27.7702 20.3026C27.5997 20.1322 27.3685 20.0364 27.1274 20.0364C26.8862 20.0364 26.655 20.1322 26.4845 20.3026C26.314 20.4731 26.2183 20.7044 26.2183 20.9455Z" fill="currentColor"/>
<path d="M20 0C8.94545 0 0 8.94545 0 20C0 31.0545 8.94545 40 20 40C31.0545 40 40 31.0545 40 20C40 8.94545 31.0545 0 20 0ZM16.5818 24.6182C15.5273 24.6182 14.6909 24.4 13.6364 24.1818L10.6909 25.6364L11.5273 23.1273C9.41818 21.6727 8.18182 19.7818 8.18182 17.4545C8.18182 13.4545 11.9636 10.3273 16.5818 10.3273C20.6909 10.3273 24.3273 12.8364 25.0545 16.2182C24.8 16.1818 24.5091 16.1818 24.2545 16.1818C20.2545 16.1818 17.1273 19.1636 17.1273 22.8364C17.1273 23.4545 17.2364 24.0364 17.3818 24.5818C17.0909 24.5818 16.8364 24.6182 16.5818 24.6182ZM28.8727 27.5636L29.4909 29.6727L27.2 28.4C26.3636 28.6182 25.5273 28.8364 24.6909 28.8364C20.6909 28.8364 17.5636 26.1091 17.5636 22.7636C17.5636 19.4182 20.6909 16.6909 24.6909 16.6909C28.4727 16.6909 31.8182 19.4182 31.8182 22.7636C31.8182 24.6182 30.5818 26.2909 28.8727 27.5636Z" fill="currentColor"/>
</g>
<defs>
<clipPath id="clip0_291_11350">
<rect width="40" height="40" fill=""/>
</clipPath>
</defs>
</svg>
