<svg width="393" height="243" viewBox="0 0 393 243" fill="none" xmlns="http://www.w3.org/2000/svg">
<path d="M88 86.4H49.9V7.2H88V86.4ZM0.5 36.7H16V21.4H1.5L5.5 2H18.5L17.1 8.6H41.5V21.4H28.8V36.7H44.3V49.5H28.8C28.8 51.7 28.7 53.8667 28.5 56L41.8 64.6V79.8L26.4 69.9C24.8 76.9667 22.0333 84.3333 18.1 92H2C6.93333 85.2667 10.4667 78.4667 12.6 71.6C14.8 64.6667 15.9333 57.3 16 49.5H0.5V36.7ZM75.3 73.5V20.1H62.6V73.5H75.3ZM188.7 57.4H139V5.2H188.7V57.4ZM99.5 30.5H122.1V71.9L130.8 68.4V83.3L109 92V43.8H99.5V30.5ZM119.8 2L126.7 23.7H112.9L106 2H119.8ZM144.4 66.4H158.1L148.9 92H135.2L144.4 66.4ZM175.7 44.4V18.2H152V44.4H175.7ZM183.2 66.4L192.4 92H178.7L169.5 66.4H183.2ZM199.5 92C202.3 85.8667 204.267 79.5667 205.4 73.1C206.533 66.6333 207.1 59.5667 207.1 51.9V35.2H220.5L215.2 20.9H228.8L234.1 35.2H257.9L263.2 20.9H276.8L271.5 35.2H291V48H220.3V51.9C220.3 59.3667 219.8 66.3333 218.8 72.8C217.867 79.2667 216.233 85.6667 213.9 92H199.5ZM202.8 5.9H241.5V0.0999935H254.7V5.9H289.2V18.7H202.8V5.9ZM299.1 86.8C302.7 68.8 304.5 49.4667 304.5 28.8H315.6C315.6 50.8667 314.033 70.2 310.9 86.8H299.1ZM301.1 12.3H319.8V1.49999H332.4V12.3H339V24.7H332.4V37.4L339.4 41.8V56.9L332.4 52.5V92H319.8V24.7H301.1V12.3ZM340.2 77.3C347.333 72.7667 353.467 66.9667 358.6 59.9C352.133 48.6333 347.767 35.2667 345.5 19.8H341.3V6.99999H388.1C386.7 27.6667 381.9 45.3 373.7 59.9C378.967 67.0333 385.1 72.8333 392.1 77.3V93.2C381.9 87.5333 373.233 80.2 366.1 71.2C359.1 80.2 350.467 87.5333 340.2 93.2V77.3ZM357.9 19.8C359.633 30.1333 362.4 39.2333 366.2 47.1C369.933 39.1 372.667 30 374.4 19.8H357.9ZM83.3 189.3V218.6H66.1V229.8H92V242H53.1V218.6H39.3C37.5 224.8 33.3 230.033 26.7 234.3C20.1667 238.633 11.6 241.467 1 242.8V230.4C7.46667 229.733 12.7667 228.367 16.9 226.3C21.0333 224.233 23.9 221.667 25.5 218.6H8.7V189.3H83.3ZM1 173.9H19.4L15.8 167H6V155.4H39.4V150H52.6V155.4H86V167H76.1L72.5 173.9H91V185.5H1V173.9ZM70.3 207.4V200.3H21.7V207.4H70.3ZM33 173.9H58.9L62.5 167H29.4L33 173.9ZM179.7 152C177.1 158.733 173.9 165.067 170.1 171H184.3V189.7H192V202.6H184.3V221.7H154.3V242H127.1V229.2H141.1V221.7H109.1V209.2H141.1V202.2H101V190.1H141.1V183.4H114.1V178.6C111.1 180.4 107.6 181.933 103.6 183.2V170.3C111.933 166.167 117.9 160.067 121.5 152H179.7ZM155.3 171C156.9 168.867 158.3 166.767 159.5 164.7H128.6C127 167.1 125.367 169.2 123.7 171H155.3ZM171.5 209.2V202.2H154.3V209.2H171.5ZM171.5 190.1V183.4H154.3V190.1H171.5ZM291 242.3C281.333 238.567 273.767 233.033 268.3 225.7C262.9 218.3 259.467 209.033 258 197.9H252.5V242H239.6V197.9H234C232.533 209.033 229.067 218.3 223.6 225.7C218.2 233.033 210.667 238.567 201 242.3V227.8C212.467 222.4 219.367 212.433 221.7 197.9H200.2V185.3H239.5V169.8H204.4V157.2H239.5V150H252.5V157.2H287.6V169.8H252.5V185.3H291.8V197.9H270.3C272.633 212.433 279.533 222.4 291 227.8V242.3ZM391 242.3C381.333 238.967 373.767 234.033 368.3 227.5C362.9 220.967 359.467 212.733 358 202.8H352.5V242H339.6V202.8H334C332.533 212.733 329.067 220.967 323.6 227.5C318.2 234.033 310.667 238.967 301 242.3V228.8C312.333 224.133 319.233 215.467 321.7 202.8H300.2V190.3H339.5V168.5H303.8V156H339.5V150H352.5V156H388.2V168.5H352.5V190.3H391.8V202.8H370.3C372.767 215.467 379.667 224.133 391 228.8V242.3ZM322.1 171.3L327.4 187.2H314.6L309.3 171.3H322.1ZM369.9 171.3H382.7L377.4 187.2H364.6L369.9 171.3Z" fill="#303133"/>
</svg>
